<?xml version="1.0" ?><svg enable-background="new 0 0 192 192" id="windows" version="1.1" viewBox="0 0 192 192" xml:space="preserve" xmlns="http://www.w3.org/2000/svg" xmlns:xlink="http://www.w3.org/1999/xlink"><g><path d="M88,0H4C1.7891,0,0,1.7892,0,4v84c0,2.2108,1.7891,4,4,4h84c2.2107,0,4-1.7892,4-4V4   C92,1.7892,90.2107,0,88,0z" fill="#FD5A5A"/><path d="M88,100H4c-2.2109,0-4,1.7892-4,4v84c0,2.2108,1.7891,4,4,4h84c2.2107,0,4-1.7892,4-4v-84   C92,101.7892,90.2107,100,88,100z" fill="#50CCD3"/><path d="M188,100h-84c-2.2109,0-4,1.7892-4,4v84c0,2.2108,1.7891,4,4,4h84c2.2107,0,4-1.7892,4-4v-84   C192,101.7892,190.2107,100,188,100z" fill="#FCC24C"/><path d="M188,0h-84c-2.2109,0-4,1.7892-4,4v84c0,2.2108,1.7891,4,4,4h84c2.2107,0,4-1.7892,4-4V4   C192,1.7892,190.2107,0,188,0z" fill="#C1DB66"/></g></svg>